<svg version="1.1" className="highcharts-root" style="font-family:'Zen Kurenaido';font-size:12" xmlns="http://www.w3.org/2000/svg" width="600" height="113" viewBox="0 0 600 113">
    <desc>Created with Highcharts 9.3.1</desc>
    <defs>
        <clipPath id="highcharts-kmq6272-333505-"><rect x="0" y="0" width="530" height="88" fill="none"></rect></clipPath><clipPath id="highcharts-kmq6272-333536-"><rect x="0" y="0" width="530" height="53" fill="none"></rect></clipPath><clipPath id="highcharts-kmq6272-333567-"><rect x="0" y="0" width="530" height="26" fill="none"></rect></clipPath>
    </defs>
    <rect fill="transparent" className="highcharts-background" x="0" y="0" width="600" height="113" rx="0" ry="0"></rect>
    <rect fill="none" className="highcharts-plot-background" x="60" y="10" width="530" height="88"></rect>
    <rect fill="none" className="highcharts-plot-border" data-z-index="1" x="60" y="10" width="530" height="88"></rect>
    <g className="highcharts-grid highcharts-xaxis-grid" data-z-index="1"></g>
    <g className="highcharts-grid highcharts-yaxis-grid" data-z-index="1">
        <path fill="none" stroke="#4C4C64" strokeWidth="1" strokeDasharray="none" data-z-index="1" className="highcharts-grid-line" d="M 60 63.5 L 590 63.5" opacity="1"></path><path fill="none" stroke="#4C4C64" strokeWidth="1" strokeDasharray="none" data-z-index="1" className="highcharts-grid-line" d="M 60 9.5 L 590 9.5" opacity="1"></path>
    </g>
    <g className="highcharts-grid highcharts-yaxis-grid" data-z-index="1"><path fill="none" stroke="#4C4C64" strokeWidth="1" strokeDasharray="none" data-z-index="1" className="highcharts-grid-line" d="M 60 98.5 L 590 98.5" opacity="1"></path>
    </g>
    <g className="highcharts-axis highcharts-xaxis" data-z-index="2"><path fill="none" className="highcharts-axis-line" data-z-index="7" d="M 60 98 L 590 98"></path></g>
    <g className="highcharts-axis highcharts-yaxis" data-z-index="2"><path fill="none" className="highcharts-tick" stroke="#4C4C64" strokeWidth="1" d="M 60 63.5 L 50 63.5" opacity="1"></path><path fill="none" className="highcharts-tick" stroke="#4C4C64" strokeWidth="1" d="M 60 9.5 L 50 9.5" opacity="1"></path><path fill="none" className="highcharts-axis-line" data-z-index="7" d="M 60 10 L 60 63"></path></g>
    <g className="highcharts-axis highcharts-yaxis" data-z-index="2"><path fill="none" className="highcharts-axis-line" data-z-index="7" d="M 10 72 L 10 98"></path></g>
    <g className="highcharts-series-group" data-z-index="3">
        <g className="highcharts-series highcharts-series-0 highcharts-line-series" data-z-index="0.1" opacity="1" transform="translate(60,10) scale(1 1)" clipPath="url(#highcharts-kmq6272-333536-)">
            <path fill="none" d="M 13.691955526488 28.708333333333325 L 31.023544800523 29.812499999999993 L 48.355134074559 29.812499999999993 L 65.686723348594 29.812499999999993 L 83.018312622629 29.812499999999993 L 100.34990189666 29.812499999999993 L 117.6814911707 29.812499999999993 L 135.01308044474 6.625 L 152.34466971877 29.812499999999993 L 169.67625899281 29.812499999999993 L 187.00784826684 29.812499999999993 L 204.33943754088 28.708333333333325 L 221.67102681491 28.708333333333325 L 239.00261608895 28.708333333333325 L 256.33420536298 28.708333333333325 L 273.66579463702 28.708333333333325 L 290.99738391105 28.708333333333325 L 308.32897318509 28.818749999999994 L 325.66056245912 28.818749999999994 L 342.99215173316 28.818749999999994 L 360.32374100719 28.818749999999994 L 377.65533028123 28.818749999999994 L 394.98691955526 29.812499999999993 L 412.3185088293 29.812499999999993 L 429.65009810334 29.812499999999993 L 446.98168737737 29.812499999999993 L 464.31327665141 29.812499999999993 L 481.64486592544 29.812499999999993 L 498.97645519948 18.77083333333333 L 516.30804447351 23.187500000000004" className="highcharts-graph" data-z-index="1" stroke="#8965D3" strokeWidth="1" strokeLinejoin="round" strokeLinecap="round"></path>
            <path fill="none" d="M 13.691955526488 28.708333333333325 L 31.023544800523 29.812499999999993 L 48.355134074559 29.812499999999993 L 65.686723348594 29.812499999999993 L 83.018312622629 29.812499999999993 L 100.34990189666 29.812499999999993 L 117.6814911707 29.812499999999993 L 135.01308044474 6.625 L 152.34466971877 29.812499999999993 L 169.67625899281 29.812499999999993 L 187.00784826684 29.812499999999993 L 204.33943754088 28.708333333333325 L 221.67102681491 28.708333333333325 L 239.00261608895 28.708333333333325 L 256.33420536298 28.708333333333325 L 273.66579463702 28.708333333333325 L 290.99738391105 28.708333333333325 L 308.32897318509 28.818749999999994 L 325.66056245912 28.818749999999994 L 342.99215173316 28.818749999999994 L 360.32374100719 28.818749999999994 L 377.65533028123 28.818749999999994 L 394.98691955526 29.812499999999993 L 412.3185088293 29.812499999999993 L 429.65009810334 29.812499999999993 L 446.98168737737 29.812499999999993 L 464.31327665141 29.812499999999993 L 481.64486592544 29.812499999999993 L 498.97645519948 18.77083333333333 L 516.30804447351 23.187500000000004" visibility="visible" data-z-index="2" className="highcharts-tracker-line" strokeLinecap="round" strokeLinejoin="round" stroke="rgba(192,192,192,0.0001)" strokeWidth="21"></path>
        </g>
    <g className="highcharts-markers highcharts-series-0 highcharts-line-series highcharts-tracker" data-z-index="0.1" opacity="1" transform="translate(60,10) scale(1 1)" clipPath="none"><path fill="#8965D3" d="M 13 32 A 3 3 0 1 1 13.002999999500002 31.999998500000125 Z" opacity="1" className="highcharts-point"></path><path fill="#8965D3" d="M 31 33 A 3 3 0 1 1 31.002999999500002 32.999998500000125 Z" opacity="1" className="highcharts-point"></path>
        <path fill="#8965D3" d="M 48 33 A 3 3 0 1 1 48.002999999500005 32.999998500000125 Z" opacity="1" className="highcharts-point"></path>
        <path fill="#8965D3" d="M 65 33 A 3 3 0 1 1 65.0029999995 32.999998500000125 Z" opacity="1" className="highcharts-point"></path><path fill="#8965D3" d="M 83 33 A 3 3 0 1 1 83.0029999995 32.999998500000125 Z" opacity="1" className="highcharts-point"></path>
        <path fill="#8965D3" d="M 100 33 A 3 3 0 1 1 100.0029999995 32.999998500000125 Z" opacity="1" className="highcharts-point"></path><path fill="#8965D3" d="M 117 33 A 3 3 0 1 1 117.0029999995 32.999998500000125 Z" opacity="1" className="highcharts-point"></path>
        <path fill="#8965D3" d="M 135 10 A 3 3 0 1 1 135.0029999995 9.999998500000125 Z" opacity="1" className="highcharts-point"></path><path fill="#8965D3" d="M 152 33 A 3 3 0 1 1 152.0029999995 32.999998500000125 Z" opacity="1" className="highcharts-point"></path>
        <path fill="#8965D3" d="M 169 33 A 3 3 0 1 1 169.0029999995 32.999998500000125 Z" opacity="1" className="highcharts-point"></path><path fill="#8965D3" d="M 187 33 A 3 3 0 1 1 187.0029999995 32.999998500000125 Z" opacity="1" className="highcharts-point"></path>
        <path fill="#8965D3" d="M 204 32 A 3 3 0 1 1 204.0029999995 31.999998500000125 Z" opacity="1" className="highcharts-point"></path><path fill="#8965D3" d="M 221 32 A 3 3 0 1 1 221.0029999995 31.999998500000125 Z" opacity="1" className="highcharts-point"></path>
        <path fill="#8965D3" d="M 239 32 A 3 3 0 1 1 239.0029999995 31.999998500000125 Z" opacity="1" className="highcharts-point"></path><path fill="#8965D3" d="M 256 32 A 3 3 0 1 1 256.0029999995 31.999998500000125 Z" opacity="1" className="highcharts-point"></path>
        <path fill="#8965D3" d="M 273 32 A 3 3 0 1 1 273.0029999995 31.999998500000125 Z" opacity="1" className="highcharts-point"></path><path fill="#8965D3" d="M 290 32 A 3 3 0 1 1 290.0029999995 31.999998500000125 Z" opacity="1" className="highcharts-point"></path>
        <path fill="#8965D3" d="M 308 32 A 3 3 0 1 1 308.0029999995 31.999998500000125 Z" opacity="1" className="highcharts-point"></path><path fill="#8965D3" d="M 325 32 A 3 3 0 1 1 325.0029999995 31.999998500000125 Z" opacity="1" className="highcharts-point"></path>
        <path fill="#8965D3" d="M 342 32 A 3 3 0 1 1 342.0029999995 31.999998500000125 Z" opacity="1" className="highcharts-point"></path><path fill="#8965D3" d="M 360 32 A 3 3 0 1 1 360.0029999995 31.999998500000125 Z" opacity="1" className="highcharts-point"></path>
        <path fill="#8965D3" d="M 377 32 A 3 3 0 1 1 377.0029999995 31.999998500000125 Z" opacity="1" className="highcharts-point"></path><path fill="#8965D3" d="M 394 33 A 3 3 0 1 1 394.0029999995 32.999998500000125 Z" opacity="1" className="highcharts-point"></path>
        <path fill="#8965D3" d="M 412 33 A 3 3 0 1 1 412.0029999995 32.999998500000125 Z" opacity="1" className="highcharts-point"></path><path fill="#8965D3" d="M 429 33 A 3 3 0 1 1 429.0029999995 32.999998500000125 Z" opacity="1" className="highcharts-point"></path>
        <path fill="#8965D3" d="M 446 33 A 3 3 0 1 1 446.0029999995 32.999998500000125 Z" opacity="1" className="highcharts-point"></path><path fill="#8965D3" d="M 464 33 A 3 3 0 1 1 464.0029999995 32.999998500000125 Z" opacity="1" className="highcharts-point"></path>
        <path fill="#8965D3" d="M 481 33 A 3 3 0 1 1 481.0029999995 32.999998500000125 Z" opacity="1" className="highcharts-point"></path><path fill="#8965D3" d="M 498 22 A 3 3 0 1 1 498.0029999995 21.999998500000125 Z" opacity="1" className="highcharts-point"></path>
        <path fill="#8965D3" d="M 516 26 A 3 3 0 1 1 516.0029999995 25.999998500000125 Z" opacity="1" className="highcharts-point"></path></g>
    <g className="highcharts-series highcharts-series-1 highcharts-column-series highcharts-tracker" data-z-index="0.1" opacity="1" transform="translate(60,72) scale(1 1)" clipPath="url(#highcharts-kmq6272-333567-)">
        <rect x="8" y="18" width="11" height="9" fill="#8686A0" rx="2" ry="2" opacity="1" className="highcharts-point"></rect><rect x="26" y="25" width="10" height="2" fill="#8686A0" rx="2" ry="2" opacity="1" className="highcharts-point"></rect>
        <rect x="43" y="25" width="11" height="2" fill="#8686A0" rx="2" ry="2" opacity="1" className="highcharts-point"></rect><rect x="60" y="25" width="11" height="2" fill="#8686A0" rx="2" ry="2" opacity="1" className="highcharts-point"></rect>
        <rect x="78" y="25" width="10" height="2" fill="#8686A0" rx="2" ry="2" opacity="1" className="highcharts-point"></rect><rect x="95" y="25" width="11" height="2" fill="#8686A0" rx="2" ry="2" opacity="1" className="highcharts-point"></rect>
        <rect x="112" y="25" width="11" height="2" fill="#8686A0" rx="2" ry="2" opacity="1" className="highcharts-point"></rect><rect x="130" y="24" width="10" height="3" fill="#8686A0" rx="2" ry="2" opacity="1" className="highcharts-point"></rect>
        <rect x="147" y="25" width="11" height="2" fill="#8686A0" rx="2" ry="2" opacity="1" className="highcharts-point"></rect><rect x="164" y="25" width="11" height="2" fill="#8686A0" rx="2" ry="2" opacity="1" className="highcharts-point"></rect>
        <rect x="182" y="25" width="10" height="2" fill="#8686A0" rx="2" ry="2" opacity="1" className="highcharts-point"></rect><rect x="199" y="25" width="11" height="2" fill="#8686A0" rx="2" ry="2" opacity="1" className="highcharts-point"></rect>
        <rect x="216" y="25" width="11" height="2" fill="#8686A0" rx="2" ry="2" opacity="1" className="highcharts-point"></rect><rect x="234" y="25" width="10" height="2" fill="#8686A0" rx="2" ry="2" opacity="1" className="highcharts-point"></rect>
        <rect x="251" y="25" width="11" height="2" fill="#8686A0" rx="2" ry="2" opacity="1" className="highcharts-point"></rect><rect x="268" y="25" width="11" height="2" fill="#8686A0" rx="2" ry="2" opacity="1" className="highcharts-point"></rect>
        <rect x="286" y="25" width="10" height="2" fill="#8686A0" rx="2" ry="2" opacity="1" className="highcharts-point"></rect><rect x="303" y="25" width="11" height="2" fill="#8686A0" rx="2" ry="2" opacity="1" className="highcharts-point"></rect>
        <rect x="320" y="25" width="11" height="2" fill="#8686A0" rx="2" ry="2" opacity="1" className="highcharts-point"></rect><rect x="338" y="25" width="10" height="2" fill="#8686A0" rx="2" ry="2" opacity="1" className="highcharts-point"></rect>
        <rect x="355" y="25" width="11" height="2" fill="#8686A0" rx="2" ry="2" opacity="1" className="highcharts-point"></rect><rect x="372" y="25" width="11" height="2" fill="#8686A0" rx="2" ry="2" opacity="1" className="highcharts-point"></rect>
        <rect x="390" y="25" width="10" height="2" fill="#8686A0" rx="2" ry="2" opacity="1" className="highcharts-point"></rect><rect x="407" y="25" width="11" height="2" fill="#8686A0" rx="2" ry="2" opacity="1" className="highcharts-point"></rect>
        <rect x="424" y="25" width="11" height="2" fill="#8686A0" rx="2" ry="2" opacity="1" className="highcharts-point"></rect><rect x="442" y="25" width="10" height="2" fill="#8686A0" rx="2" ry="2" opacity="1" className="highcharts-point"></rect>
        <rect x="459" y="16" width="11" height="11" fill="#8686A0" rx="2" ry="2" opacity="1" className="highcharts-point"></rect><rect x="476" y="25" width="11" height="2" fill="#8686A0" rx="2" ry="2" opacity="1" className="highcharts-point"></rect>
        <rect x="494" y="2" width="10" height="25" fill="#8686A0" rx="2" ry="2" opacity="1" className="highcharts-point"></rect><rect x="511" y="25" width="11" height="2" fill="#8686A0" rx="2" ry="2" opacity="1" className="highcharts-point"></rect></g>
    <g className="highcharts-markers highcharts-series-1 highcharts-column-series" data-z-index="0.1" opacity="1" transform="translate(60,72) scale(1 1)" clipPath="none"></g></g>
    <text x="300" textAnchor="middle" className="highcharts-title" data-z-index="4" style="color:#8686A0;font-size:'24px';text-transform:'uppercase';font-weight:'400px';line-weight:24px;fill:'#8686A0'" y="30"></text>
    <text x="300" textAnchor="middle" className="highcharts-subtitle" data-z-index="4" style="color:'#E0E0E3';text-transform:'uppercase';fill:'#E0E0E3'" y="24"></text>
    <text x="10" textAnchor="start" className="highcharts-caption" data-z-index="4" style="color:'#666666';fill:'#666666'" y="110"></text>
    <g className="highcharts-axis-labels highcharts-xaxis-labels" data-z-index="7"></g>
    <g className="highcharts-axis-labels highcharts-yaxis-labels" data-z-index="7">
        <text x="45" style="color:#7D7D9D;cursor:default;font-size:14px;font-weight:600;fill:#7D7D9D" text-anchor="end" transform="translate(0,0)" y="67" opacity="1">0.048</text>
        <text x="45" style="color:#7D7D9D;cursor:default;font-size:14px;font-weight:600;fill:#7D7D9D" text-anchor="end" transform="translate(0,0)" y="14" opacity="1">0.096</text>
    </g>
    <g className="highcharts-axis-labels highcharts-yaxis-labels" data-z-index="7"></g>
</svg>