<svg width="28" height="22" viewBox="0 0 28 22" fill="none" xmlns="http://www.w3.org/2000/svg">
<g clip-path="url(#clip0_33:413)">
<path d="M23.7032 1.9591C21.9186 1.12854 20.0048 0.516615 18.0039 0.166143C17.9674 0.159379 17.931 0.176283 17.9123 0.210091C17.6661 0.654095 17.3935 1.23334 17.2026 1.68862C15.0505 1.36182 12.9094 1.36182 10.8014 1.68862C10.6104 1.22322 10.3279 0.654095 10.0807 0.210091C10.0619 0.177411 10.0255 0.160507 9.98906 0.166143C7.98923 0.515495 6.07549 1.12742 4.28976 1.9591C4.2743 1.96586 4.26105 1.97714 4.25225 1.99178C0.62229 7.49234 -0.372109 12.8577 0.11571 18.1565C0.117917 18.1825 0.132265 18.2073 0.152131 18.223C2.54708 20.0069 4.86699 21.0899 7.14383 21.8078C7.18026 21.8191 7.21887 21.8055 7.24206 21.7751C7.78065 21.0291 8.26075 20.2425 8.67239 19.4153C8.69668 19.3669 8.67349 19.3094 8.62384 19.2902C7.86232 18.9972 7.1372 18.64 6.43968 18.2343C6.38451 18.2016 6.3801 18.1216 6.43085 18.0833C6.57763 17.9717 6.72446 17.8556 6.86461 17.7384C6.88997 17.717 6.92531 17.7125 6.95512 17.726C11.5375 19.8481 16.4985 19.8481 21.0268 17.726C21.0566 17.7114 21.0919 17.7159 21.1184 17.7373C21.2586 17.8545 21.4054 17.9717 21.5533 18.0833C21.604 18.1216 21.6007 18.2016 21.5455 18.2343C20.848 18.6479 20.1229 18.9972 19.3603 19.2891C19.3106 19.3083 19.2885 19.3669 19.3128 19.4153C19.7333 20.2413 20.2134 21.0279 20.742 21.774C20.7641 21.8055 20.8038 21.8191 20.8403 21.8078C23.1282 21.0899 25.4481 20.0069 27.843 18.223C27.864 18.2073 27.8772 18.1836 27.8794 18.1577C28.4633 12.0316 26.9016 6.71026 23.7396 1.9929C23.7319 1.97714 23.7186 1.96586 23.7032 1.9591ZM9.35669 14.9301C7.97708 14.9301 6.84032 13.6454 6.84032 12.0677C6.84032 10.49 7.95504 9.2053 9.35669 9.2053C10.7694 9.2053 11.8951 10.5013 11.873 12.0677C11.873 13.6454 10.7583 14.9301 9.35669 14.9301ZM18.6605 14.9301C17.281 14.9301 16.1442 13.6454 16.1442 12.0677C16.1442 10.49 17.2589 9.2053 18.6605 9.2053C20.0732 9.2053 21.199 10.5013 21.1769 12.0677C21.1769 13.6454 20.0732 14.9301 18.6605 14.9301Z" fill="#B1B1D0"/>
</g>
<defs>
<clipPath id="clip0_33:413">
<rect width="28" height="22" fill="white"/>
</clipPath>
</defs>
</svg>
