<svg width="48" height="48" viewBox="0 0 48 48" fill="none" xmlns="http://www.w3.org/2000/svg">
<path d="M46.0408 0H1.95918C0.877156 0 0 0.89543 0 2V46C0 47.1046 0.877156 48 1.95918 48H46.0408C47.1228 48 48 47.1046 48 46V2C48 0.89543 47.1228 0 46.0408 0Z" fill="#181818"/>
<path d="M24.4863 5L24.251 5.84293V30.3027L24.4863 30.5502L35.2586 23.8389L24.4863 5Z" fill="#545462"/>
<path d="M24.4866 5L13.7144 23.8389L24.4866 30.5503V18.6783V5Z" fill="#7E7E91"/>
<path d="M24.4866 32.7L24.354 32.8704V41.5835L24.4866 41.9917L35.2653 25.9921L24.4866 32.7Z" fill="#545462"/>
<path d="M24.4866 41.9916V32.6999L13.7144 25.992L24.4866 41.9916Z" fill="#7E7E91"/>
<path d="M24.4858 30.5502L35.258 23.839L24.4858 18.6784V30.5502Z" fill="#353541"/>
<path d="M13.7144 23.839L24.4865 30.5502V18.6784L13.7144 23.839Z" fill="#545462"/>
</svg>
